<?xml version="1.0" encoding="utf-8"?>
<!-- Generator: Adobe Illustrator 18.0.0, SVG Export Plug-In . SVG Version: 6.00 Build 0)  -->
<!DOCTYPE svg PUBLIC "-//W3C//DTD SVG 1.1//EN" "http://www.w3.org/Graphics/SVG/1.1/DTD/svg11.dtd">
<svg version="1.1" id="Layer_1" xmlns="http://www.w3.org/2000/svg" xmlns:xlink="http://www.w3.org/1999/xlink" x="0px" y="0px"
	 viewBox="0 0 216 60" enable-background="new 0 0 216 60" xml:space="preserve">
<polygon fill="#6898AD" points="198.7,0 17.3,0 0,30 17.3,60 198.7,60 216,30 "/>
<g>
	<polygon fill="#FFFBE6" points="49.5,19.6 42.3,19.6 42.3,14.1 39.5,14.1 39.5,28.6 42.3,28.6 42.3,22.4 49.5,22.4 49.5,28.6 
		52.3,28.6 52.3,14.1 49.5,14.1 	"/>
	<path fill="#FFFBE6" d="M67,14.1h-2.7l-6.6,14.5h3l2-4.5h5.6l2,4.5h3.1l-6.4-14.3L67,14.1z M67.2,21.3h-3.1l1.6-3.4L67.2,21.3z"/>
	<polygon fill="#FFFBE6" points="89.1,23.8 81.5,14.1 78.9,14.1 78.9,28.6 81.7,28.6 81.7,18.9 89.3,28.6 91.9,28.6 91.9,14.1 
		89.1,14.1 	"/>
	<path fill="#FFFBE6" d="M106.2,14.1h-6.7v14.5h6.7c4.1,0,7.1-3.2,7.1-7.3C113.3,17.8,111.1,14.1,106.2,14.1z M106.2,25.8h-3.9v-9
		h3.9c2.6,0,4.4,1.8,4.4,4.4C110.5,23,109.4,25.8,106.2,25.8z"/>
	<g>
		<path fill="#FFFBE6" d="M120.4,17.2L120.4,17.2l0,7.1h-1.5V14.2h1.5l3.5,6.3l3.5-6.3h1.5v10.2h-1.5v-7.1h0l-3.4,6.3L120.4,17.2z"
			/>
		<path fill="#FFFBE6" d="M144.4,24.3h-1.7l-1.5-3.4h-4.6l-1.5,3.4h-1.6l4.6-10.2h1.6L144.4,24.3z M139,16l-1.6,3.5h3.2L139,16z"/>
		<path fill="#FFFBE6" d="M153.6,14.2c3.6,0,5,2.7,5,5c0,2.9-2.1,5.1-5,5.1h-4.7V14.2H153.6z M150.4,15.6v7.3h3.2
			c2.5,0,3.5-2.1,3.5-3.7c0-2.2-1.5-3.6-3.5-3.6H150.4z"/>
		<path fill="#FFFBE6" d="M172.3,14.2v1.5h-6.9v2.7h3.5v1.5h-3.5v3.1h7.1v1.5h-8.6V14.2H172.3z"/>
	</g>
	<polygon fill="#FFFBE6" points="118.9,28.5 143.9,28.5 172.5,28.5 172.5,27.4 143.9,27.4 118.9,27.4 	"/>
	<g>
		<polygon fill="#FFFBE6" points="48.3,40.2 48.2,40.2 46.3,33.2 45,33.2 43,40.2 43,40.2 40.9,33.2 39.5,33.2 42.3,42.6 43.8,42.6 
			45.6,36 45.6,36 47.6,42.6 49,42.6 51.8,33.2 50.3,33.2 		"/>
		<polygon fill="#FFFBE6" points="56.8,42.6 58.2,42.6 58.2,37.6 58.2,33.2 56.8,33.2 56.8,37.6 		"/>
		<polygon fill="#FFFBE6" points="63.3,34.5 66.6,34.5 66.6,42.6 68,42.6 68,34.5 71.3,34.5 71.3,33.2 63.3,33.2 		"/>
		<polygon fill="#FFFBE6" points="83.2,37 77.7,37 77.7,33.2 76.3,33.2 76.3,42.6 77.7,42.6 77.7,38.4 83.2,38.4 83.2,42.6 
			84.6,42.6 84.6,33.2 83.2,33.2 		"/>
		<polygon fill="#FFFBE6" points="39.5,46.5 84.6,46.5 84.6,45.5 39.5,45.5 		"/>
	</g>
	<polygon fill="#FFFBE6" points="99.7,38.3 92.9,38.3 92.9,33.2 90.4,33.2 90.4,46.6 92.9,46.6 92.9,40.9 99.7,40.9 99.7,46.6 
		102.2,46.6 102.2,33.2 99.7,33.2 	"/>
	<polygon fill="#FFFBE6" points="112,40.9 116.3,40.9 116.3,38.4 112,38.4 112,35.7 120.5,35.7 120.5,33.2 109.4,33.2 109.4,46.6 
		120.9,46.6 120.9,44.1 112,44.1 	"/>
	<path fill="#FFFBE6" d="M133.4,33.2h-2.5l-6.1,13.4h2.8l1.9-4.2h5.2l1.8,4.2h2.9l-5.9-13.2L133.4,33.2z M133.6,39.9h-2.9l1.4-3.2
		L133.6,39.9z"/>
	<path fill="#FFFBE6" d="M156.6,37.2c0-2.9-2.3-4-4.3-4h-7.9v13.4h2.6v-5.3h4.1l2.5,5.3h2.9l-2.7-5.5
		C155,40.9,156.6,39.8,156.6,37.2z M146.9,35.7h5.3c1.8,0,1.8,1.1,1.8,1.4c0,1.3-1,1.6-1.8,1.6h-5.3V35.7z"/>
	<polygon fill="#FFFBE6" points="161.1,33.2 161.1,35.7 165.5,35.7 165.5,46.6 168.1,46.6 168.1,35.7 172.5,35.7 172.5,33.2 	"/>
</g>
</svg>
